<?xml version="1.0" standalone="no"?><!DOCTYPE svg PUBLIC "-//W3C//DTD SVG 1.1//EN" "http://www.w3.org/Graphics/SVG/1.1/DTD/svg11.dtd"><svg t="1651300981067" class="icon" viewBox="0 0 1071 1024" version="1.1" xmlns="http://www.w3.org/2000/svg" p-id="1305" xmlns:xlink="http://www.w3.org/1999/xlink" width="209.1796875" height="200"><defs><style type="text/css">@font-face { font-family: feedback-iconfont; src: url("//at.alicdn.com/t/font_1031158_u69w8yhxdu.woff2?t=1630033759944") format("woff2"), url("//at.alicdn.com/t/font_1031158_u69w8yhxdu.woff?t=1630033759944") format("woff"), url("//at.alicdn.com/t/font_1031158_u69w8yhxdu.ttf?t=1630033759944") format("truetype"); }
</style></defs><path d="M157.988139 1024A158.189505 158.189505 0 0 1 0 865.877617V422.369754a40.172449 40.172449 0 0 1 80.344898 0V865.877617a77.894949 77.894949 0 0 0 77.643241 77.94529h755.221902A77.894949 77.894949 0 0 0 991.10499 865.877617V290.122858a77.894949 77.894949 0 0 0-77.894949-77.643242H136.408453l65.242473 65.158571a40.172449 40.172449 0 1 1-56.801896 56.818677L12.132281 201.656212a40.004644 40.004644 0 0 1-11.74633-28.912752v-8.037846l0.302048-1.258535V162.77586l0.33561-1.208194v-0.688l0.335609-1.124291 0.318829-0.738341 0.385951-0.990048 0.35239-0.872584 0.385951-0.822243 1.493462-1.258536 0.302048-0.687999 0.33561-1.05717 0.536975-0.620877 0.637658-1.124292 0.335609-0.536975 0.738341-1.124292 0.335609-0.536975 0.771902-1.057169 0.453073-0.654439 0.704779-0.956487L10.068283 145.995388l0.671219-0.687999 1.174633-1.208194L144.84903 11.046836a40.172449 40.172449 0 0 1 56.801896 56.785116L137.448842 132.000475h775.677297a158.172725 158.172725 0 0 1 158.00492 158.122383V865.877617a158.189505 158.189505 0 0 1-157.98814 157.988139z" p-id="1306"></path><path d="M392.646253 367.346588m38.293036 0l0.016781 0q38.293036 0 38.293036 38.293036l0 315.036573q0 38.293036-38.293036 38.293036l-0.016781 0q-38.293036 0-38.293036-38.293036l0-315.036573q0-38.293036 38.293036-38.293036Z" p-id="1307"></path><path d="M592.703035 367.346588m38.293036 0l0.01678 0q38.293036 0 38.293036 38.293036l0 315.036573q0 38.293036-38.293036 38.293036l-0.01678 0q-38.293036 0-38.293036-38.293036l0-315.036573q0-38.293036 38.293036-38.293036Z" p-id="1308"></path></svg>