<?xml version="1.0" standalone="no"?><!DOCTYPE svg PUBLIC "-//W3C//DTD SVG 1.1//EN" "http://www.w3.org/Graphics/SVG/1.1/DTD/svg11.dtd"><svg t="1651299401142" class="icon" viewBox="0 0 1024 1024" version="1.1" xmlns="http://www.w3.org/2000/svg" p-id="7808" xmlns:xlink="http://www.w3.org/1999/xlink" width="200" height="200"><defs><style type="text/css">@font-face { font-family: feedback-iconfont; src: url("//at.alicdn.com/t/font_1031158_u69w8yhxdu.woff2?t=1630033759944") format("woff2"), url("//at.alicdn.com/t/font_1031158_u69w8yhxdu.woff?t=1630033759944") format("woff"), url("//at.alicdn.com/t/font_1031158_u69w8yhxdu.ttf?t=1630033759944") format("truetype"); }
</style></defs><path d="M757.527273 190.138182L382.510545 490.123636a28.020364 28.020364 0 0 0 0 43.752728l375.016728 299.985454a28.020364 28.020364 0 0 0 45.474909-21.876363V212.014545a28.020364 28.020364 0 0 0-45.474909-21.876363zM249.949091 221.509818a28.020364 28.020364 0 0 0-27.973818 27.973818v525.032728a28.020364 28.020364 0 1 0 55.994182 0V249.483636a28.020364 28.020364 0 0 0-28.020364-27.973818zM747.054545 270.242909v483.514182L444.834909 512l302.173091-241.757091z" fill="#333333" p-id="7809"></path></svg>