<?xml version="1.0" standalone="no"?><!DOCTYPE svg PUBLIC "-//W3C//DTD SVG 1.1//EN" "http://www.w3.org/Graphics/SVG/1.1/DTD/svg11.dtd"><svg t="1651299366808" class="icon" viewBox="0 0 1024 1024" version="1.1" xmlns="http://www.w3.org/2000/svg" p-id="7520" xmlns:xlink="http://www.w3.org/1999/xlink" width="200" height="200"><defs><style type="text/css">@font-face { font-family: feedback-iconfont; src: url("//at.alicdn.com/t/font_1031158_u69w8yhxdu.woff2?t=1630033759944") format("woff2"), url("//at.alicdn.com/t/font_1031158_u69w8yhxdu.woff?t=1630033759944") format("woff"), url("//at.alicdn.com/t/font_1031158_u69w8yhxdu.ttf?t=1630033759944") format("truetype"); }
</style></defs><path d="M398.754909 369.524364h227.607273c15.685818 0 28.392727 12.753455 28.392727 28.439272v227.560728a28.439273 28.439273 0 0 1-28.392727 28.439272h-227.607273a28.439273 28.439273 0 0 1-28.392727-28.439272V397.963636c0-15.685818 12.706909-28.439273 28.392727-28.439272zM512 910.242909a398.242909 398.242909 0 1 0 0-796.485818 398.242909 398.242909 0 0 0 0 796.485818z m0 56.878546c-251.345455 0-455.121455-203.776-455.121455-455.121455S260.654545 56.878545 512 56.878545 967.121455 260.654545 967.121455 512 763.345455 967.121455 512 967.121455z" fill="#333333" p-id="7521"></path></svg>