<?xml version="1.0" standalone="no"?><!DOCTYPE svg PUBLIC "-//W3C//DTD SVG 1.1//EN" "http://www.w3.org/Graphics/SVG/1.1/DTD/svg11.dtd"><svg t="1651303133666" class="icon" viewBox="0 0 1024 1024" version="1.1" xmlns="http://www.w3.org/2000/svg" p-id="3251" xmlns:xlink="http://www.w3.org/1999/xlink" width="200" height="200"><defs><style type="text/css">@font-face { font-family: feedback-iconfont; src: url("//at.alicdn.com/t/font_1031158_u69w8yhxdu.woff2?t=1630033759944") format("woff2"), url("//at.alicdn.com/t/font_1031158_u69w8yhxdu.woff?t=1630033759944") format("woff"), url("//at.alicdn.com/t/font_1031158_u69w8yhxdu.ttf?t=1630033759944") format("truetype"); }
</style></defs><path d="M512 844.79264c-48.045353 0-87.057818-39.014272-87.057818-87.057819 0-48.047159 39.012465-87.057818 87.057818-87.057818 48.045353 0 87.057818 39.012465 87.057818 87.057818 0 48.164563-39.014272 87.057818-87.057818 87.057819z" fill="#231815" p-id="3252"></path><path d="M947.191556 511.999097c0 240.351394-194.843775 435.193362-435.191556 435.193362-240.364037 0-435.193362-194.841968-435.193362-435.193362 0-240.362231 194.831131-435.206006 435.193362-435.206006 240.347781 0 435.191556 194.843775 435.191556 435.206006zM512 0C229.226005 0 0.000903 229.225101 0.000903 511.999097c0 282.763158 229.225101 512.000903 511.999097 512.000903 282.761352 0 511.999097-229.237745 511.999097-512.000903C1023.999097 229.225101 794.761352 0 512 0z" fill="#231815" p-id="3253"></path><path d="M512 623.079592c-58.006636 0-104.572698-271.120288-104.572698-328.783743 0-57.768215 46.909243-104.558248 104.690102-104.558248 57.770021 0 104.558248 46.788226 104.558248 104.558248-0.115598 57.663455-46.68166 328.783743-104.675652 328.783743z" fill="#231815" p-id="3254"></path></svg>